<svg version="1.1" preserveAspectRatio="none" xmlns="http://www.w3.org/2000/svg" width="500" height="500" viewBox="0 0 500 500"><rect width="100%" height="100%" fill="#012B28" fill-opacity="1"/><svg viewBox="279.1167 184.7679 448.6866 206.9995" width="333" height="153.6280189780573" x="83.5px" y="173.186px" xmlns="http://www.w3.org/2000/svg" xmlns:xlink="http://www.w3.org/1999/xlink" preserveAspectRatio="none"><defs></defs><style>.companyName {fill:#EBB42C;fill-opacity:1;}.icon2 {fill:#E7240E;fill-opacity:1;}.icon3 {fill:#B47049;fill-opacity:1;}.icon3-str {stroke:#B47049;stroke-opacity:1;}</style><g opacity="1" transform="rotate(0 279.1167 369.7674)">
<svg width="448.6866" height="22" x="279.1167" y="369.7674" version="1.1" preserveAspectRatio="none" viewBox="1.2 -28 580.8399999999999 28.48">
  <g transform="matrix(1 0 0 1 0 0)" class="companyName"><path id="id-D6z1nYkh15" d="M6.56-8.24L20.36-8.24L24.20 0L28.08 0L15.04-28L13.04-28L1.20 0L3.04 0L6.56-8.24ZM13.24-23.52L19.52-10.04L7.32-10.04L13.08-23.52L13.24-23.52Z M53.72 0L53.72-11.68Q54.76-11.40 55.96-11.22Q57.16-11.04 58.60-11.04L58.60-11.04Q61.04-11.04 62.92-11.72Q64.80-12.40 66.06-13.58Q67.32-14.76 67.96-16.30Q68.60-17.84 68.60-19.60L68.60-19.60Q68.60-21.28 68.04-22.82Q67.48-24.36 66.34-25.50Q65.20-26.64 63.48-27.32Q61.76-28 59.44-28L59.44-28L50.08-28L50.08 0L53.72 0ZM53.72-13.32L53.72-26.24L57.92-26.24Q59.60-26.24 60.88-25.64Q62.16-25.04 63-24.06Q63.84-23.08 64.26-21.86Q64.68-20.64 64.68-19.44L64.68-19.44Q64.68-18.28 64.30-17.10Q63.92-15.92 63.08-14.96Q62.24-14 60.96-13.40Q59.68-12.80 57.88-12.80L57.88-12.80Q56.64-12.80 55.60-12.90Q54.56-13 53.72-13.32L53.72-13.32Z M94.24 0L94.24-11.68Q95.28-11.40 96.48-11.22Q97.68-11.04 99.12-11.04L99.12-11.04Q101.56-11.04 103.44-11.72Q105.32-12.40 106.58-13.58Q107.84-14.76 108.48-16.30Q109.12-17.84 109.12-19.60L109.12-19.60Q109.12-21.28 108.56-22.82Q108-24.36 106.86-25.50Q105.72-26.64 104-27.32Q102.28-28 99.96-28L99.96-28L90.60-28L90.60 0L94.24 0ZM94.24-13.32L94.24-26.24L98.44-26.24Q100.12-26.24 101.40-25.64Q102.68-25.04 103.52-24.06Q104.36-23.08 104.78-21.86Q105.20-20.64 105.20-19.44L105.20-19.44Q105.20-18.28 104.82-17.10Q104.44-15.92 103.60-14.96Q102.76-14 101.48-13.40Q100.20-12.80 98.40-12.80L98.40-12.80Q97.16-12.80 96.12-12.90Q95.08-13 94.24-13.32L94.24-13.32Z M171.20 0L161.52 0L161.52-28L170.72-28Q174.04-28 176.80-26.94Q179.56-25.88 181.54-24.02Q183.52-22.16 184.62-19.60Q185.72-17.04 185.72-14.08L185.72-14.08Q185.72-11 184.58-8.42Q183.44-5.84 181.46-3.96Q179.48-2.08 176.84-1.04Q174.20 0 171.20 0L171.20 0ZM165.16-26.24L165.16-1.76L169.56-1.76Q172.84-1.76 175.14-2.86Q177.44-3.96 178.92-5.72Q180.40-7.48 181.08-9.66Q181.76-11.84 181.76-14L181.76-14Q181.76-16.40 180.96-18.62Q180.16-20.84 178.62-22.54Q177.08-24.24 174.80-25.24Q172.52-26.24 169.56-26.24L169.56-26.24L165.16-26.24Z M225.80-28L207.72-28L207.72 0L225.80 0L225.80-2.20L211.36-2.20L211.36-13.92L223.76-13.92L223.76-15.76L211.36-15.76L211.36-25.80L225.80-25.80L225.80-28Z M287.88 0L278.20 0L278.20-28L287.40-28Q290.72-28 293.48-26.94Q296.24-25.88 298.22-24.02Q300.20-22.16 301.30-19.60Q302.40-17.04 302.40-14.08L302.40-14.08Q302.40-11 301.26-8.42Q300.12-5.84 298.14-3.96Q296.16-2.08 293.52-1.04Q290.88 0 287.88 0L287.88 0ZM281.84-26.24L281.84-1.76L286.24-1.76Q289.52-1.76 291.82-2.86Q294.12-3.96 295.60-5.72Q297.08-7.48 297.76-9.66Q298.44-11.84 298.44-14L298.44-14Q298.44-16.40 297.64-18.62Q296.84-20.84 295.30-22.54Q293.76-24.24 291.48-25.24Q289.20-26.24 286.24-26.24L286.24-26.24L281.84-26.24Z M342.48-28L324.40-28L324.40 0L342.48 0L342.48-2.20L328.04-2.20L328.04-13.92L340.44-13.92L340.44-15.76L328.04-15.76L328.04-25.80L342.48-25.80L342.48-28Z M382.56 0L364.48 0L364.48-28L368.12-28L368.12-2.20L382.56-2.20L382.56 0Z M409.80-28L406.16-28L406.16 0L409.80 0L409.80-28Z M437.72-28L433.40-28L445.12 0L447.52 0L458.88-28L456.80-28L447.48-4.96L447.32-4.96L437.72-28Z M498.96-28L480.88-28L480.88 0L498.96 0L498.96-2.20L484.52-2.20L484.52-13.92L496.92-13.92L496.92-15.76L484.52-15.76L484.52-25.80L498.96-25.80L498.96-28Z M530.04-28L520.96-28L520.96 0L524.60 0L524.60-12.36L526.36-12.36Q527.48-12.36 528.22-12.16Q528.96-11.96 529.56-11.48Q530.16-11 530.68-10.24Q531.20-9.48 531.92-8.36L531.92-8.36L535.08-3.68Q535.68-2.76 536.26-2Q536.84-1.24 537.52-0.70Q538.20-0.16 539.06 0.16Q539.92 0.48 541.12 0.48L541.12 0.48Q542 0.48 542.56 0.40Q543.12 0.32 543.68 0L543.68 0L543.68-1.48Q543.48-1.44 543.28-1.42Q543.08-1.40 542.88-1.40L542.88-1.40Q542.04-1.40 541.40-1.64Q540.76-1.88 540.20-2.34Q539.64-2.80 539.12-3.46Q538.60-4.12 538.04-4.96L538.04-4.96Q536.36-7.40 535.44-8.86Q534.52-10.32 533.98-11.12Q533.44-11.92 533.10-12.28Q532.76-12.64 532.28-12.88L532.28-12.88L531.88-13.08L531.88-13.24Q533.80-13.36 535.18-14.08Q536.56-14.80 537.44-15.88Q538.32-16.96 538.72-18.22Q539.12-19.48 539.12-20.68L539.12-20.68Q539.12-21.76 538.70-23.04Q538.28-24.32 537.26-25.42Q536.24-26.52 534.48-27.26Q532.72-28 530.04-28L530.04-28ZM524.60-14.16L524.60-26.24L528.64-26.24Q530.16-26.24 531.38-25.80Q532.60-25.36 533.48-24.58Q534.36-23.80 534.82-22.72Q535.28-21.64 535.28-20.36L535.28-20.36Q535.28-19.28 534.86-18.18Q534.44-17.08 533.60-16.18Q532.76-15.28 531.54-14.72Q530.32-14.16 528.72-14.16L528.72-14.16L524.60-14.16Z M563-28L558.88-28L568.56-10.60L568.56 0L572.20 0L572.20-10.96L582.04-28L579.88-28L571.32-13.24L571.16-13.24L563-28Z"/></g>
</svg>
</g><g opacity="1" transform="rotate(0 453.46 184.7679)">
<svg width="100" height="124.9995" x="453.46" y="184.7679" version="1.1" preserveAspectRatio="none" viewBox="36 20 128.00201416015625 160.00201416015625">
  <g transform="matrix(1 0 0 1 0 0)" ><g><path d="M151.182 111.152h-3.762a8.657 8.657 0 0 0 .534-2.978c0-4.204-3.027-7.773-7.172-8.947a1.798 1.798 0 0 0-1.741-1.36h-.421a13 13 0 0 0-11.447-6.799c-4.301 0-8.269 2.139-10.673 5.554a9.573 9.573 0 0 0-7.144-3.23 9.497 9.497 0 0 0-8.516 5.238c-4.91 1.943-9.644 6.684-9.644 12.45 0 4.08 2.868 7.526 5.531 9.847v11.587l-3.391 28.647c-.31 1.13-1.783 7.324 1.534 12.444 2.295 3.542 6.269 5.689 11.813 6.383.074.009.149.014.224.014h27.66c.075 0 .15-.005.224-.014 5.544-.693 9.518-2.841 11.813-6.383 1.844-2.846 2.205-6.02 2.111-8.475v-.022l-.006-.12c-.006-.131-.012-.26-.021-.387l-.007-.097a19.66 19.66 0 0 0-.143-1.356h2.646c7.068 0 12.818-5.752 12.818-12.821v-26.352c-.002-7.071-5.752-12.823-12.82-12.823zm9.212 39.173c0 5.081-4.132 9.214-9.212 9.214h-3.238l-.462-3.904h3.7a5.316 5.316 0 0 0 5.309-5.31v-26.352a5.317 5.317 0 0 0-5.309-5.311h-5.994a9.993 9.993 0 0 0 .442-2.935c0-.323-.022-.646-.053-.969h5.605c5.079 0 9.212 4.134 9.212 9.214v26.353zm-25.942 26.068H107.02c-4.368-.566-7.433-2.157-9.111-4.731-.972-1.49-1.38-3.158-1.508-4.681h48.678c-.128 1.511-.537 3.168-1.504 4.661-1.674 2.585-4.744 4.183-9.123 4.751zm-39.649-65.314c0-3.369 2.497-6.365 5.425-8.131a13.063 13.063 0 0 1 2.516-1.176 1.8 1.8 0 0 0 1.099-1.038c.152-.379.342-.733.559-1.064a5.915 5.915 0 0 1 4.954-2.671c1.105 0 2.162.314 3.071.867a5.968 5.968 0 0 1 2.497 3.021c.082.223.209.418.363.587.335.367.811.592 1.328.592h.004c.516-.001.99-.226 1.324-.592.156-.171.284-.369.366-.595.153-.42.338-.822.544-1.208a9.458 9.458 0 0 1 8.318-4.996 9.402 9.402 0 0 1 8.318 4.996c.254.478.473.981.645 1.51a1.802 1.802 0 0 0 1.709 1.244 7.416 7.416 0 0 1 1.541.168 6.996 6.996 0 0 1 1.9.713c1.836 1.019 3.061 2.821 3.061 4.868 0 1.067-.338 2.087-.958 2.978a5.99 5.99 0 0 1-1.01 1.125c-.01.009-.018.019-.028.027a1.801 1.801 0 0 0-.457.651 1.797 1.797 0 0 0-.082 1.142 6.576 6.576 0 0 1 .174.97c.023.22.038.441.038.661 0 1.046-.254 2.04-.706 2.935l-.023.046a7.12 7.12 0 0 1-1.574 2.036 7.997 7.997 0 0 1-2.498 1.525 8.7 8.7 0 0 1-5.518.217 8.012 8.012 0 0 1-3.175-1.777 1.801 1.801 0 0 0-2.193-.18c-.063.041-.128.08-.187.13a10.48 10.48 0 0 1-2.016 1.329c-1.587.804-3.401 1.233-5.288 1.233-2.839 0-5.492-.961-7.472-2.704a1.805 1.805 0 0 0-1.861-.321 9.777 9.777 0 0 1-3.592.7 1.804 1.804 0 0 0-1.794 1.804v15.786a1.899 1.899 0 0 1-1.896 1.897 1.898 1.898 0 0 1-1.896-1.897v-18.399c0-.303-.078-.595-.218-.855a1.798 1.798 0 0 0-.445-.543 22.074 22.074 0 0 1-1.184-1.039c-1.716-1.619-3.683-4.029-3.683-6.572zm1.749 52.295h-.002a13.9 13.9 0 0 1 .215-1.069l.002-.007.023-.091.01-.038.012-.046c.013-.05.022-.08.023-.081.031-.102.053-.208.066-.314l2.215-18.708a5.47 5.47 0 0 0 3.115.972 5.51 5.51 0 0 0 5.503-5.504v-14.111a13.315 13.315 0 0 0 2.097-.467c2.521 1.891 5.681 2.921 9.016 2.921 1.781 0 3.517-.299 5.134-.865a14.663 14.663 0 0 0 3.298-1.645 11.795 11.795 0 0 0 4.211 1.834 12.253 12.253 0 0 0 3.607.248 11.972 11.972 0 0 0 5.108-1.578l3.221 27.204.214 1.804.214 1.804.462 3.904.214 1.804.045.383c.001.013.006.025.008.038.013.091.031.184.057.271.002.007.125.427.246 1.111l.039.227H96.552zm46.98-41.104h7.65c.939 0 1.703.764 1.703 1.704v26.352c0 .939-.764 1.703-1.703 1.703h-4.127l-3.523-29.759z" data-color="1" class="companyName"></path><path d="M74.286 70.732l-3.282-37.709c1.081-.236 1.721-.902 2.134-1.334.107-.112.269-.28.307-.306 0 0 .015-.003.049-.003a1.804 1.804 0 0 0 1.744-2.261l-2.034-7.773A1.806 1.806 0 0 0 71.459 20h-.011l-22.303.13a1.805 1.805 0 0 0-1.725 1.313l-2.159 7.643a1.8 1.8 0 0 0 1.735 2.293h.034c.068.045.218.202.319.308.414.432 1.053 1.099 2.136 1.334L46.203 70.73c-.386 4.436-2.08 8.661-4.899 12.219C38.028 87.087 36 93.926 36 97.89v72.908c0 5.074 4.127 9.202 9.199 9.202H75.29c5.072 0 9.199-4.128 9.199-9.202V97.89c0-3.964-2.028-10.803-5.305-14.939-2.818-3.558-4.512-7.783-4.898-12.219zm6.598 100.066a5.6 5.6 0 0 1-5.593 5.595H45.199a5.6 5.6 0 0 1-5.593-5.595v-23.23h41.277v23.23zM49.179 28.483l1.015-3.592.002-.008.326-1.154 1.584-.009h.001l16.269-.095 1.693-.01.172.657.002.006 1.095 4.184c-.275.2-.496.414-.678.602l-.005.005-.12.124c-.107.112-.268.28-.307.306 0 0-.057.003-.079.002h-.005a3.112 3.112 0 0 1-.32-.309c-.249-.26-.581-.605-1.041-.89l-.005-.003a3.544 3.544 0 0 0-1.851-.525h-.004l-.058-.002c-1.597 0-2.449.889-2.958 1.42-.107.112-.268.28-.306.306 0 0-.015.003-.048.003h-.035c-.068-.045-.218-.203-.32-.308-.509-.531-1.36-1.42-2.958-1.42-1.597 0-2.449.889-2.958 1.42-.107.112-.268.28-.306.306 0 0-.015.003-.048.003h-.034a3.202 3.202 0 0 1-.319-.308c-.509-.531-1.36-1.42-2.957-1.42l-.053.002h-.004a3.54 3.54 0 0 0-1.851.522l-.005.003c-.462.286-.795.632-1.045.893-.107.112-.268.28-.306.306 0 0-.015.003-.048.003h-.034c-.068-.045-.218-.203-.32-.308l-.119-.123-.005-.005a5.01 5.01 0 0 0-.649-.584zm4.047 3.248l.04-.042c.107-.112.268-.28.306-.306 0 0 .015-.003.048-.003h.034c.068.046.218.202.319.308.509.531 1.36 1.42 2.958 1.42 1.597 0 2.449-.889 2.958-1.42.107-.112.268-.28.306-.306 0 0 .015-.003.048-.003h.035c.068.045.218.203.32.308.509.531 1.36 1.42 2.958 1.42 1.597 0 2.449-.889 2.958-1.42.107-.112.268-.28.306-.306 0 0 .015-.003.048-.003h.035c.068.045.219.203.32.309l.044.045 2.164 25.111h-18.37l2.165-25.112zm-3.429 39.314l.922-10.592h19.053l.922 10.592c.448 5.141 2.407 10.033 5.665 14.146 2.707 3.417 4.525 9.325 4.525 12.699v18.468h-6.979c-2.269-7.5-7.63-12.442-13.66-12.442s-11.391 4.942-13.66 12.442h-6.979V97.89c0-3.374 1.818-9.282 4.525-12.699 3.259-4.113 5.218-9.004 5.666-14.146zm-.082 47.542c1.603-6.617 5.835-11.063 10.53-11.063 4.695 0 8.927 4.446 10.53 11.063.196.809.92 1.379 1.752 1.379h8.356v23.996H39.606v-23.996h8.356a1.805 1.805 0 0 0 1.753-1.379z" data-color="1" class="companyName"></path></g></g>
</svg>
</g></svg></svg>