<svg version="1.1" preserveAspectRatio="none" xmlns="http://www.w3.org/2000/svg" width="500" height="500" viewBox="0 0 500 500"><rect width="100%" height="100%" fill="#012B28" fill-opacity="1"/><svg viewBox="705.7057 437.8959 389.0085 263.2651" width="333" height="225.36082964768121" x="83.5px" y="137.3196px" xmlns="http://www.w3.org/2000/svg" xmlns:xlink="http://www.w3.org/1999/xlink" preserveAspectRatio="none"><defs></defs><style>.companyName {fill:#EBB42C;fill-opacity:1;}.icon2 {fill:#E7240E;fill-opacity:1;}.icon3 {fill:#B47049;fill-opacity:1;}.icon3-str {stroke:#B47049;stroke-opacity:1;}</style><g opacity="1" transform="rotate(0 705.7057 661.161)">
<svg width="389.0085" height="40" x="705.7057" y="661.161" version="1.1" preserveAspectRatio="none" viewBox="5.2 -28.48 281.64 28.96">
  <g transform="matrix(1 0 0 1 0 0)" class="companyName"><path id="id-D6z1nYkh7" d="M14.88 0L5.20 0L5.20-28L14.40-28Q17.72-28 20.48-26.94Q23.24-25.88 25.22-24.02Q27.20-22.16 28.30-19.60Q29.40-17.04 29.40-14.08L29.40-14.08Q29.40-11 28.26-8.42Q27.12-5.84 25.14-3.96Q23.16-2.08 20.52-1.04Q17.88 0 14.88 0L14.88 0ZM8.84-26.24L8.84-1.76L13.24-1.76Q16.52-1.76 18.82-2.86Q21.12-3.96 22.60-5.72Q24.08-7.48 24.76-9.66Q25.44-11.84 25.44-14L25.44-14Q25.44-16.40 24.64-18.62Q23.84-20.84 22.30-22.54Q20.76-24.24 18.48-25.24Q16.20-26.24 13.24-26.24L13.24-26.24L8.84-26.24Z M60.48-28L51.40-28L51.40 0L55.04 0L55.04-12.36L56.80-12.36Q57.92-12.36 58.66-12.16Q59.40-11.96 60-11.48Q60.60-11 61.12-10.24Q61.64-9.48 62.36-8.36L62.36-8.36L65.52-3.68Q66.12-2.76 66.70-2Q67.28-1.24 67.96-0.70Q68.64-0.16 69.50 0.16Q70.36 0.48 71.56 0.48L71.56 0.48Q72.44 0.48 73 0.40Q73.56 0.32 74.12 0L74.12 0L74.12-1.48Q73.92-1.44 73.72-1.42Q73.52-1.40 73.32-1.40L73.32-1.40Q72.48-1.40 71.84-1.64Q71.20-1.88 70.64-2.34Q70.08-2.80 69.56-3.46Q69.04-4.12 68.48-4.96L68.48-4.96Q66.80-7.40 65.88-8.86Q64.96-10.32 64.42-11.12Q63.88-11.92 63.54-12.28Q63.20-12.64 62.72-12.88L62.72-12.88L62.32-13.08L62.32-13.24Q64.24-13.36 65.62-14.08Q67-14.80 67.88-15.88Q68.76-16.96 69.16-18.22Q69.56-19.48 69.56-20.68L69.56-20.68Q69.56-21.76 69.14-23.04Q68.72-24.32 67.70-25.42Q66.68-26.52 64.92-27.26Q63.16-28 60.48-28L60.48-28ZM55.04-14.16L55.04-26.24L59.08-26.24Q60.60-26.24 61.82-25.80Q63.04-25.36 63.92-24.58Q64.80-23.80 65.26-22.72Q65.72-21.64 65.72-20.36L65.72-20.36Q65.72-19.28 65.30-18.18Q64.88-17.08 64.04-16.18Q63.20-15.28 61.98-14.72Q60.76-14.16 59.16-14.16L59.16-14.16L55.04-14.16Z M101.36-28L97.72-28L97.72 0L101.36 0L101.36-28Z M152.96-28L151.12-28L151.12-6.60L150.96-6.60L128.76-28.48L128.56-28.48L128.56 0L130.40 0L130.40-21.40L130.56-21.40L152.76 0.48L152.96 0.48L152.96-28Z M178.56-28L178.56 0L182.20 0L182.20-9.84L186.72-14.68L197.36 0L201.52 0L189.04-17.16L199.20-28L197.20-28L182.20-12.24L182.20-28L178.56-28Z M225.56-28L221.92-28L221.92-10.80Q221.92-9.16 222.24-7.18Q222.56-5.20 223.76-3.50Q224.96-1.80 227.32-0.66Q229.68 0.48 233.76 0.48L233.76 0.48Q236.32 0.48 238.30-0.32Q240.28-1.12 241.62-2.52Q242.96-3.92 243.64-5.78Q244.32-7.64 244.32-9.76L244.32-9.76L244.32-28L242.56-28L242.56-11.08Q242.56-10.20 242.52-9.30Q242.48-8.40 242.28-7.50Q242.08-6.60 241.66-5.72Q241.24-4.84 240.44-3.96L240.44-3.96Q239-2.40 237.20-1.84Q235.40-1.28 233.44-1.28L233.44-1.28Q231.76-1.28 230.46-1.80Q229.16-2.32 228-3.36L228-3.36Q227.08-4.16 226.60-4.96Q226.12-5.76 225.88-6.54Q225.64-7.32 225.60-8.12Q225.56-8.92 225.56-9.72L225.56-9.72L225.56-28Z M271.96 0L271.96-11.68Q273-11.40 274.20-11.22Q275.40-11.04 276.84-11.04L276.84-11.04Q279.28-11.04 281.16-11.72Q283.04-12.40 284.30-13.58Q285.56-14.76 286.20-16.30Q286.84-17.84 286.84-19.60L286.84-19.60Q286.84-21.28 286.28-22.82Q285.72-24.36 284.58-25.50Q283.44-26.64 281.72-27.32Q280-28 277.68-28L277.68-28L268.32-28L268.32 0L271.96 0ZM271.96-13.32L271.96-26.24L276.16-26.24Q277.84-26.24 279.12-25.64Q280.40-25.04 281.24-24.06Q282.08-23.08 282.50-21.86Q282.92-20.64 282.92-19.44L282.92-19.44Q282.92-18.28 282.54-17.10Q282.16-15.92 281.32-14.96Q280.48-14 279.20-13.40Q277.92-12.80 276.12-12.80L276.12-12.80Q274.88-12.80 273.84-12.90Q272.80-13 271.96-13.32L271.96-13.32Z"/></g>
</svg>
</g><g opacity="1" transform="rotate(0 850.21 437.8959)">
<svg width="100" height="163.2651" x="850.21" y="437.8959" version="1.1" preserveAspectRatio="none" viewBox="50.99980163574219 20 98.00019836425781 159.99998474121094">
  <g transform="matrix(1 0 0 1 0 0)" ><g><path d="M130.594 131.586a2.323 2.323 0 0 0 2.315-2.332 2.324 2.324 0 0 0-2.315-2.332h-.254a2.323 2.323 0 0 0-2.315 2.332 2.324 2.324 0 0 0 2.315 2.332h.254z" data-color="1" class="companyName"></path><path d="M149 113.16v4.665h-47.145v-4.665H149z" data-color="1" class="companyName"></path><path d="M148.226 118.903l-4.568.685.331 2.302c.035.245.289 2.195.057 5.031h-7.249a2.323 2.323 0 0 0-2.315 2.332 2.324 2.324 0 0 0 2.315 2.332h6.481c-1.557 6.263-5.757 14.109-16.64 18.962l-1.112.496-1.112-.496c-10.837-4.832-15.048-12.675-16.617-18.962h16.257a2.323 2.323 0 0 0 2.315-2.332 2.324 2.324 0 0 0-2.315-2.332h-17.03c-.182-2.157-.084-3.817-.006-4.637l.221-2.322-4.61-.445-.221 2.322c-.366 3.845-1.114 23.502 20.13 32.974l.831.37v11.118l-13.398 8.969a2.342 2.342 0 0 0-.935 2.617 2.317 2.317 0 0 0 2.217 1.658h28.267c.123 0 .241-.018.359-.036.081.009.16.037.241.037.73 0 1.449-.347 1.899-.996a2.343 2.343 0 0 0-.571-3.248L128 165.83v-10.789l.511-.228c12.115-5.402 16.934-14.234 18.843-20.693 2.063-6.98 1.25-12.678 1.214-12.917l-.342-2.3zm-22.205 51.225l6.748 4.753H118.92l7.101-4.753z" data-color="1" class="companyName"></path><path d="M68.925 51.097l11.151-.061V62.97h4.631V20H64.293v42.97h4.631V51.097zm11.151-26.432v21.707l-11.151.061V24.665h11.151z" data-color="1" class="companyName"></path><path d="M89.571 101.428H59.429v35.823h30.142v-35.823zm-4.631 31.158H64.06v-26.493h20.88v26.493z" data-color="1" class="companyName"></path><path d="M85.388 65.068l-1.902-1.33-2.641 3.832 1.902 1.33c.097.068 9.681 6.867 10.485 15.798.373 4.144-.088 59.787-.404 90.637H55.724c-.035-13.92-.204-85.593.027-90.292.46-9.399 10.397-15.286 10.58-15.393l2.01-1.152-2.289-4.055-2.013 1.153c-.503.288-12.326 7.196-12.914 19.217-.26 5.299-.036 89.288-.026 92.86l.006 2.327H97.41l.024-2.308c.037-3.585.908-87.871.409-93.415-.996-11.075-11.988-18.882-12.455-19.209z" data-color="1" class="companyName"></path><path d="M86.936 140.938v27.981h-4.631v-27.981h4.631z" data-color="1" class="companyName"></path><path d="M81.763 75.009l-1.643-1.643-3.262 3.311 1.643 1.643c.181.181.466.502.798 1.009l1.277 1.946 3.864-2.572-1.277-1.946a10.987 10.987 0 0 0-1.4-1.748z" data-color="1" class="companyName"></path><path d="M85.673 82.393l-4.542.905.45 2.288c.545 2.776.784 6.065.711 9.777l-.046 2.332 4.63.093.046-2.332c.08-4.045-.189-7.671-.798-10.775l-.451-2.288z" data-color="1" class="companyName"></path></g></g>
</svg>
</g></svg></svg>